<svg width="235" height="33" viewBox="0 0 235 33" fill="none" xmlns="http://www.w3.org/2000/svg">
<path d="M18.54 23.6582V28H4.16016V23.6582H18.54ZM5.97852 0.984375V28H0.412109V0.984375H5.97852ZM16.666 11.9873V16.2178H4.16016V11.9873H16.666ZM18.5215 0.984375V5.34473H4.16016V0.984375H18.5215ZM39.1543 23.6582V28H25.5537V23.6582H39.1543ZM27.3535 0.984375V28H21.7871V0.984375H27.3535ZM63.3125 13.8613V15.1416C63.3125 17.195 63.0342 19.0381 62.4775 20.6709C61.9209 22.3037 61.1354 23.6953 60.1211 24.8457C59.1068 25.9837 57.8945 26.8558 56.4844 27.4619C55.0866 28.068 53.5342 28.3711 51.8271 28.3711C50.1325 28.3711 48.5801 28.068 47.1699 27.4619C45.7721 26.8558 44.5599 25.9837 43.5332 24.8457C42.5065 23.6953 41.7087 22.3037 41.1396 20.6709C40.583 19.0381 40.3047 17.195 40.3047 15.1416V13.8613C40.3047 11.7956 40.583 9.95247 41.1396 8.33203C41.6963 6.69922 42.4818 5.30762 43.4961 4.15723C44.5228 3.00684 45.735 2.12858 47.1328 1.52246C48.543 0.916341 50.0954 0.613281 51.79 0.613281C53.4971 0.613281 55.0495 0.916341 56.4473 1.52246C57.8574 2.12858 59.0697 3.00684 60.084 4.15723C61.1107 5.30762 61.9023 6.69922 62.459 8.33203C63.028 9.95247 63.3125 11.7956 63.3125 13.8613ZM57.6904 15.1416V13.8242C57.6904 12.3893 57.5605 11.1276 57.3008 10.0391C57.041 8.95052 56.6576 8.03516 56.1504 7.29297C55.6432 6.55078 55.0247 5.99414 54.2949 5.62305C53.5651 5.23958 52.7301 5.04785 51.79 5.04785C50.8499 5.04785 50.015 5.23958 49.2852 5.62305C48.5677 5.99414 47.9554 6.55078 47.4482 7.29297C46.9535 8.03516 46.5762 8.95052 46.3164 10.0391C46.0566 11.1276 45.9268 12.3893 45.9268 13.8242V15.1416C45.9268 16.5641 46.0566 17.8258 46.3164 18.9268C46.5762 20.0153 46.9596 20.9368 47.4668 21.6914C47.974 22.4336 48.5924 22.9964 49.3223 23.3799C50.0521 23.7633 50.887 23.9551 51.8271 23.9551C52.7673 23.9551 53.6022 23.7633 54.332 23.3799C55.0618 22.9964 55.6742 22.4336 56.1689 21.6914C56.6637 20.9368 57.041 20.0153 57.3008 18.9268C57.5605 17.8258 57.6904 16.5641 57.6904 15.1416ZM81.9971 23.9922L89.3076 29.7812L85.8008 32.8242L78.6016 27.0352L81.9971 23.9922ZM89.4932 13.8613V15.1416C89.4932 17.195 89.2148 19.0381 88.6582 20.6709C88.1139 22.3037 87.3285 23.6953 86.3018 24.8457C85.2751 25.9837 84.0628 26.8558 82.665 27.4619C81.2673 28.068 79.7148 28.3711 78.0078 28.3711C76.3132 28.3711 74.7607 28.068 73.3506 27.4619C71.9404 26.8558 70.722 25.9837 69.6953 24.8457C68.6686 23.6953 67.8708 22.3037 67.3018 20.6709C66.7451 19.0381 66.4668 17.195 66.4668 15.1416V13.8613C66.4668 11.7956 66.7451 9.95247 67.3018 8.33203C67.8708 6.69922 68.6624 5.30762 69.6768 4.15723C70.6911 3.00684 71.9033 2.12858 73.3135 1.52246C74.7236 0.916341 76.276 0.613281 77.9707 0.613281C79.6777 0.613281 81.2301 0.916341 82.6279 1.52246C84.0381 2.12858 85.2565 3.00684 86.2832 4.15723C87.3099 5.30762 88.1016 6.69922 88.6582 8.33203C89.2148 9.95247 89.4932 11.7956 89.4932 13.8613ZM83.8711 15.1416V13.8242C83.8711 12.3893 83.735 11.1276 83.4629 10.0391C83.2031 8.95052 82.8197 8.03516 82.3125 7.29297C81.8177 6.55078 81.2054 5.99414 80.4756 5.62305C79.7458 5.23958 78.9108 5.04785 77.9707 5.04785C77.0306 5.04785 76.1956 5.23958 75.4658 5.62305C74.736 5.99414 74.1237 6.55078 73.6289 7.29297C73.1341 8.03516 72.7568 8.95052 72.4971 10.0391C72.2373 11.1276 72.1074 12.3893 72.1074 13.8242V15.1416C72.1074 16.5641 72.2373 17.8258 72.4971 18.9268C72.7568 20.0153 73.1341 20.9368 73.6289 21.6914C74.1361 22.4336 74.7546 22.9964 75.4844 23.3799C76.2266 23.7633 77.0677 23.9551 78.0078 23.9551C78.9479 23.9551 79.7767 23.7633 80.4941 23.3799C81.224 22.9964 81.8363 22.4336 82.3311 21.6914C82.8382 20.9368 83.2217 20.0153 83.4814 18.9268C83.7412 17.8258 83.8711 16.5641 83.8711 15.1416ZM108.438 0.984375H113.985V18.834C113.985 20.9121 113.54 22.6624 112.649 24.085C111.771 25.5075 110.553 26.5775 108.994 27.2949C107.448 28.0124 105.667 28.3711 103.65 28.3711C101.634 28.3711 99.8405 28.0124 98.2695 27.2949C96.7109 26.5775 95.4863 25.5075 94.5957 24.085C93.7174 22.6624 93.2783 20.9121 93.2783 18.834V0.984375H98.8447V18.834C98.8447 20.0462 99.0365 21.0358 99.4199 21.8027C99.8034 22.5697 100.354 23.1325 101.071 23.4912C101.801 23.8499 102.661 24.0293 103.65 24.0293C104.665 24.0293 105.524 23.8499 106.229 23.4912C106.947 23.1325 107.491 22.5697 107.862 21.8027C108.246 21.0358 108.438 20.0462 108.438 18.834V0.984375ZM124.487 0.984375V28H118.939V0.984375H124.487Z" fill="black"/>
<path d="M18.54 23.6582H19.54V22.6582H18.54V23.6582ZM18.54 28V29H19.54V28H18.54ZM4.16016 28H3.16016V29H4.16016V28ZM4.16016 23.6582V22.6582H3.16016V23.6582H4.16016ZM5.97852 0.984375H6.97852V-0.015625H5.97852V0.984375ZM5.97852 28V29H6.97852V28H5.97852ZM0.412109 28H-0.587891V29H0.412109V28ZM0.412109 0.984375V-0.015625H-0.587891V0.984375H0.412109ZM16.666 11.9873H17.666V10.9873H16.666V11.9873ZM16.666 16.2178V17.2178H17.666V16.2178H16.666ZM4.16016 16.2178H3.16016V17.2178H4.16016V16.2178ZM4.16016 11.9873V10.9873H3.16016V11.9873H4.16016ZM18.5215 0.984375H19.5215V-0.015625H18.5215V0.984375ZM18.5215 5.34473V6.34473H19.5215V5.34473H18.5215ZM4.16016 5.34473H3.16016V6.34473H4.16016V5.34473ZM4.16016 0.984375V-0.015625H3.16016V0.984375H4.16016ZM17.54 23.6582V28H19.54V23.6582H17.54ZM18.54 27H4.16016V29H18.54V27ZM5.16016 28V23.6582H3.16016V28H5.16016ZM4.16016 24.6582H18.54V22.6582H4.16016V24.6582ZM4.97852 0.984375V28H6.97852V0.984375H4.97852ZM5.97852 27H0.412109V29H5.97852V27ZM1.41211 28V0.984375H-0.587891V28H1.41211ZM0.412109 1.98438H5.97852V-0.015625H0.412109V1.98438ZM15.666 11.9873V16.2178H17.666V11.9873H15.666ZM16.666 15.2178H4.16016V17.2178H16.666V15.2178ZM5.16016 16.2178V11.9873H3.16016V16.2178H5.16016ZM4.16016 12.9873H16.666V10.9873H4.16016V12.9873ZM17.5215 0.984375V5.34473H19.5215V0.984375H17.5215ZM18.5215 4.34473H4.16016V6.34473H18.5215V4.34473ZM5.16016 5.34473V0.984375H3.16016V5.34473H5.16016ZM4.16016 1.98438H18.5215V-0.015625H4.16016V1.98438ZM39.1543 23.6582H40.1543V22.6582H39.1543V23.6582ZM39.1543 28V29H40.1543V28H39.1543ZM25.5537 28H24.5537V29H25.5537V28ZM25.5537 23.6582V22.6582H24.5537V23.6582H25.5537ZM27.3535 0.984375H28.3535V-0.015625H27.3535V0.984375ZM27.3535 28V29H28.3535V28H27.3535ZM21.7871 28H20.7871V29H21.7871V28ZM21.7871 0.984375V-0.015625H20.7871V0.984375H21.7871ZM38.1543 23.6582V28H40.1543V23.6582H38.1543ZM39.1543 27H25.5537V29H39.1543V27ZM26.5537 28V23.6582H24.5537V28H26.5537ZM25.5537 24.6582H39.1543V22.6582H25.5537V24.6582ZM26.3535 0.984375V28H28.3535V0.984375H26.3535ZM27.3535 27H21.7871V29H27.3535V27ZM22.7871 28V0.984375H20.7871V28H22.7871ZM21.7871 1.98438H27.3535V-0.015625H21.7871V1.98438ZM60.1211 24.8457L60.8676 25.5111L60.8712 25.5071L60.1211 24.8457ZM56.4844 27.4619L56.0895 26.5432L56.0865 26.5445L56.4844 27.4619ZM47.1699 27.4619L46.7721 28.3794L46.775 28.3806L47.1699 27.4619ZM43.5332 24.8457L42.7871 25.5116L42.7907 25.5156L43.5332 24.8457ZM41.1396 20.6709L40.1931 20.9936L40.1953 21L41.1396 20.6709ZM41.1396 8.33203L42.0854 8.65691L42.0862 8.65471L41.1396 8.33203ZM43.4961 4.15723L42.75 3.49136L42.746 3.49587L43.4961 4.15723ZM47.1328 1.52246L46.7379 0.603729L46.735 0.605004L47.1328 1.52246ZM56.4473 1.52246L56.0494 2.43992L56.0524 2.44119L56.4473 1.52246ZM60.084 4.15723L59.3339 4.81859L59.3379 4.82308L60.084 4.15723ZM62.459 8.33203L61.5124 8.65472L61.5155 8.66334L62.459 8.33203ZM57.3008 10.0391L56.3281 10.2712L57.3008 10.0391ZM54.2949 5.62305L53.8298 6.50837L53.8417 6.51443L54.2949 5.62305ZM49.2852 5.62305L49.7446 6.51128L49.7503 6.50829L49.2852 5.62305ZM47.4482 7.29297L46.6225 6.72874L46.6162 6.73827L47.4482 7.29297ZM46.3164 18.9268L45.3431 19.1564L45.3437 19.1589L46.3164 18.9268ZM47.4668 21.6914L46.6368 22.2493L46.6412 22.2556L47.4668 21.6914ZM49.3223 23.3799L48.8571 24.2651L49.3223 23.3799ZM56.1689 21.6914L57.001 22.2461L57.0052 22.2398L56.1689 21.6914ZM57.3008 18.9268L58.2735 19.1589L58.2741 19.1564L57.3008 18.9268ZM62.3125 13.8613V15.1416H64.3125V13.8613H62.3125ZM62.3125 15.1416C62.3125 17.1055 62.0462 18.8369 61.531 20.3482L63.424 20.9936C64.0221 19.2392 64.3125 17.2844 64.3125 15.1416H62.3125ZM61.531 20.3482C61.0116 21.8718 60.288 23.1444 59.371 24.1843L60.8712 25.5071C61.9829 24.2462 62.8302 22.7356 63.424 20.9936L61.531 20.3482ZM59.3746 24.1803C58.4582 25.2084 57.3663 25.9944 56.0895 26.5432L56.8793 28.3806C58.4228 27.7172 59.7553 26.759 60.8676 25.5111L59.3746 24.1803ZM56.0865 26.5445C54.8286 27.0899 53.4138 27.3711 51.8271 27.3711V29.3711C53.6545 29.3711 55.3446 29.0461 56.8822 28.3794L56.0865 26.5445ZM51.8271 27.3711C50.2541 27.3711 48.8378 27.0904 47.5648 26.5432L46.775 28.3806C48.3223 29.0457 50.0109 29.3711 51.8271 29.3711V27.3711ZM47.5678 26.5445C46.3021 25.9956 45.2071 25.2083 44.2757 24.1758L42.7907 25.5156C43.9127 26.7592 45.2422 27.716 46.7721 28.3794L47.5678 26.5445ZM44.2793 24.1798C43.3502 23.1388 42.6149 21.8655 42.084 20.3418L40.1953 21C40.8024 22.7419 41.6628 24.2518 42.7871 25.5116L44.2793 24.1798ZM42.0862 20.3482C41.5709 18.8369 41.3047 17.1055 41.3047 15.1416H39.3047C39.3047 17.2844 39.5951 19.2392 40.1931 20.9936L42.0862 20.3482ZM41.3047 15.1416V13.8613H39.3047V15.1416H41.3047ZM41.3047 13.8613C41.3047 11.8841 41.5712 10.1538 42.0854 8.65691L40.1939 8.00715C39.5948 9.75112 39.3047 11.7071 39.3047 13.8613H41.3047ZM42.0862 8.65471C42.6056 7.1311 43.3292 5.85852 44.2462 4.81858L42.746 3.49587C41.6343 4.75671 40.787 6.26734 40.1931 8.00936L42.0862 8.65471ZM44.2422 4.82308C45.1736 3.77945 46.2674 2.98768 47.5306 2.43992L46.735 0.605004C45.2026 1.26948 43.872 2.23422 42.75 3.49137L44.2422 4.82308ZM47.5277 2.44119C48.8007 1.89403 50.217 1.61328 51.79 1.61328V-0.386719C49.9738 -0.386719 48.2852 -0.0613432 46.7379 0.603733L47.5277 2.44119ZM51.79 1.61328C53.3767 1.61328 54.7915 1.89445 56.0494 2.43992L56.8451 0.605004C55.3074 -0.0617671 53.6174 -0.386719 51.79 -0.386719V1.61328ZM56.0524 2.44119C57.3267 2.98891 58.4176 3.7793 59.3339 4.81858L60.8341 3.49587C59.7218 2.23437 58.3882 1.26825 56.8422 0.603733L56.0524 2.44119ZM59.3379 4.82308C60.2655 5.86243 60.9939 7.1335 61.5125 8.65471L63.4055 8.00936C62.8108 6.26494 61.9559 4.75281 60.8301 3.49137L59.3379 4.82308ZM61.5155 8.66334C62.0404 10.1582 62.3125 11.8862 62.3125 13.8613H64.3125C64.3125 11.7049 64.0156 9.74673 63.4025 8.00072L61.5155 8.66334ZM58.6904 15.1416V13.8242H56.6904V15.1416H58.6904ZM58.6904 13.8242C58.6904 12.3319 58.5556 10.9893 58.2735 9.80694L56.3281 10.2712C56.5655 11.2659 56.6904 12.4468 56.6904 13.8242H58.6904ZM58.2735 9.80694C57.9921 8.62768 57.5666 7.59307 56.976 6.72878L55.3247 7.85716C55.7485 8.47724 56.09 9.27336 56.3281 10.2712L58.2735 9.80694ZM56.976 6.72878C56.3837 5.86188 55.6419 5.18611 54.7482 4.73166L53.8417 6.51443C54.4076 6.80217 54.9028 7.23968 55.3247 7.85716L56.976 6.72878ZM54.76 4.7378C53.8678 4.26897 52.8693 4.04785 51.79 4.04785V6.04785C52.591 6.04785 53.2624 6.21019 53.8298 6.50829L54.76 4.7378ZM51.79 4.04785C50.7108 4.04785 49.7123 4.26897 48.82 4.7378L49.7503 6.50829C50.3176 6.21019 50.989 6.04785 51.79 6.04785V4.04785ZM48.8257 4.73483C47.9453 5.19024 47.2124 5.86564 46.6226 6.72878L48.2739 7.85716C48.6984 7.23592 49.1902 6.79804 49.7446 6.51126L48.8257 4.73483ZM46.6162 6.73827C46.0415 7.60028 45.6242 8.6315 45.3437 9.80694L47.2891 10.2712C47.5281 9.26955 47.8654 8.47003 48.2803 7.84767L46.6162 6.73827ZM45.3437 9.80694C45.0616 10.9893 44.9268 12.3319 44.9268 13.8242H46.9268C46.9268 12.4468 47.0517 11.2659 47.2891 10.2712L45.3437 9.80694ZM44.9268 13.8242V15.1416H46.9268V13.8242H44.9268ZM44.9268 15.1416C44.9268 16.6226 45.0617 17.9639 45.3431 19.1564L47.2897 18.6971C47.0515 17.6878 46.9268 16.5056 46.9268 15.1416H44.9268ZM45.3437 19.1589C45.625 20.3377 46.0496 21.3756 46.6368 22.2492L48.2967 21.1336C47.8696 20.4981 47.5273 19.6929 47.2891 18.6946L45.3437 19.1589ZM46.6412 22.2556C47.2319 23.1202 47.9699 23.799 48.8571 24.2651L49.7874 22.4946C49.215 22.1939 48.716 21.747 48.2924 21.1272L46.6412 22.2556ZM48.8571 24.2651C49.7494 24.734 50.7479 24.9551 51.8271 24.9551V22.9551C51.0262 22.9551 50.3547 22.7927 49.7874 22.4946L48.8571 24.2651ZM51.8271 24.9551C52.9064 24.9551 53.9049 24.734 54.7972 24.2651L53.8669 22.4946C53.2996 22.7927 52.6281 22.9551 51.8271 22.9551V24.9551ZM54.7972 24.2651C55.687 23.7976 56.4213 23.1157 57.001 22.2461L55.3369 21.1367C54.927 21.7515 54.4367 22.1952 53.8669 22.4946L54.7972 24.2651ZM57.0052 22.2398C57.5766 21.3684 57.9931 20.3339 58.2735 19.1589L56.3281 18.6946C56.089 19.6967 55.7509 20.5053 55.3327 21.143L57.0052 22.2398ZM58.2741 19.1564C58.5554 17.9639 58.6904 16.6226 58.6904 15.1416H56.6904C56.6904 16.5056 56.5657 17.6878 56.3275 18.6971L58.2741 19.1564ZM81.9971 23.9922L82.6179 23.2082L81.9572 22.6851L81.3297 23.2475L81.9971 23.9922ZM89.3076 29.7812L89.963 30.5365L90.874 29.7461L89.9284 28.9973L89.3076 29.7812ZM85.8008 32.8242L85.1741 33.6035L85.8252 34.127L86.4562 33.5795L85.8008 32.8242ZM78.6016 27.0352L77.9342 26.2904L77.0571 27.0764L77.9749 27.8145L78.6016 27.0352ZM88.6582 20.6709L87.7117 20.3482L87.7095 20.3547L88.6582 20.6709ZM86.3018 24.8457L87.0443 25.5156L87.0478 25.5116L86.3018 24.8457ZM82.665 27.4619L83.0629 28.3794L82.665 27.4619ZM69.6953 24.8457L68.9492 25.5116L68.9528 25.5156L69.6953 24.8457ZM67.3018 20.6709L66.3552 20.9936L66.3575 21L67.3018 20.6709ZM67.3018 8.33203L66.3574 8.00295L66.356 8.00715L67.3018 8.33203ZM82.6279 1.52246L82.2301 2.43992L82.233 2.44119L82.6279 1.52246ZM88.6582 8.33203L87.7117 8.65471L87.7124 8.65691L88.6582 8.33203ZM83.4629 10.0391L82.4902 10.2712L82.4927 10.2816L83.4629 10.0391ZM82.3125 7.29297L81.4804 7.8477L81.4869 7.85716L82.3125 7.29297ZM80.4756 5.62305L80.0104 6.50837L80.0223 6.51443L80.4756 5.62305ZM75.4658 5.62305L75.9191 6.51451L75.9309 6.50829L75.4658 5.62305ZM72.4971 18.9268L71.5238 19.1564L71.5244 19.1589L72.4971 18.9268ZM73.6289 21.6914L72.7927 22.2398L72.7979 22.2477L72.8033 22.2556L73.6289 21.6914ZM75.4844 23.3799L75.0192 24.2651L75.0254 24.2683L75.4844 23.3799ZM80.4941 23.3799L80.029 22.4946L80.0228 22.498L80.4941 23.3799ZM82.3311 21.6914L81.5011 21.1336L81.499 21.1367L82.3311 21.6914ZM83.4814 18.9268L84.4541 19.1589L84.4547 19.1564L83.4814 18.9268ZM81.3763 24.7762L88.6868 30.5652L89.9284 28.9973L82.6179 23.2082L81.3763 24.7762ZM88.6522 29.026L85.1454 32.0689L86.4562 33.5795L89.963 30.5365L88.6522 29.026ZM86.4274 32.0449L79.2282 26.2559L77.9749 27.8145L85.1741 33.6035L86.4274 32.0449ZM79.269 27.7799L82.6645 24.7369L81.3297 23.2475L77.9342 26.2904L79.269 27.7799ZM88.4932 13.8613V15.1416H90.4932V13.8613H88.4932ZM88.4932 15.1416C88.4932 17.1055 88.2269 18.8369 87.7117 20.3482L89.6047 20.9936C90.2028 19.2392 90.4932 17.2844 90.4932 15.1416H88.4932ZM87.7095 20.3547C87.2033 21.8734 86.4818 23.1422 85.5557 24.1798L87.0478 25.5116C88.1751 24.2484 89.0246 22.734 89.6069 20.9871L87.7095 20.3547ZM85.5593 24.1758C84.6278 25.2083 83.5329 25.9956 82.2672 26.5445L83.0629 28.3794C84.5928 27.716 85.9223 26.7592 87.0443 25.5156L85.5593 24.1758ZM82.2672 26.5445C81.0093 27.0899 79.5945 27.3711 78.0078 27.3711V29.3711C79.8352 29.3711 81.5252 29.0461 83.0629 28.3794L82.2672 26.5445ZM78.0078 27.3711C76.4347 27.3711 75.0185 27.0904 73.7455 26.5432L72.9557 28.3806C74.503 29.0457 76.1916 29.3711 78.0078 29.3711V27.3711ZM73.7455 26.5432C72.4676 25.9939 71.3678 25.2067 70.4378 24.1758L68.9528 25.5156C70.0762 26.7608 71.4133 27.7177 72.9557 28.3806L73.7455 26.5432ZM70.4414 24.1798C69.5123 23.1388 68.777 21.8655 68.2461 20.3418L66.3575 21C66.9645 22.7419 67.8249 24.2518 68.9492 25.5116L70.4414 24.1798ZM68.2483 20.3482C67.7331 18.8369 67.4668 17.1055 67.4668 15.1416H65.4668C65.4668 17.2844 65.7572 19.2392 66.3552 20.9936L68.2483 20.3482ZM67.4668 15.1416V13.8613H65.4668V15.1416H67.4668ZM67.4668 13.8613C67.4668 11.8841 67.7333 10.1538 68.2475 8.65691L66.356 8.00715C65.7569 9.75112 65.4668 11.7071 65.4668 13.8613H67.4668ZM68.2461 8.66111C68.7779 7.13507 69.5084 5.86022 70.4268 4.81858L68.9267 3.49587C67.8165 4.75501 66.9637 6.26337 66.3575 8.00296L68.2461 8.66111ZM70.4268 4.81858C71.3432 3.7793 72.4341 2.98891 73.7084 2.44119L72.9186 0.603733C71.3726 1.26825 70.039 2.23437 68.9267 3.49587L70.4268 4.81858ZM73.7084 2.44119C74.9814 1.89403 76.3976 1.61328 77.9707 1.61328V-0.386719C76.1545 -0.386719 74.4659 -0.0613432 72.9186 0.603733L73.7084 2.44119ZM77.9707 1.61328C79.5574 1.61328 80.9722 1.89445 82.2301 2.43992L83.0258 0.605004C81.4881 -0.0617671 79.7981 -0.386719 77.9707 -0.386719V1.61328ZM82.233 2.44119C83.5084 2.98939 84.6072 3.78109 85.5371 4.82308L87.0293 3.49137C85.9058 2.23258 84.5677 1.26777 83.0228 0.603733L82.233 2.44119ZM85.5371 4.82308C86.4647 5.86243 87.1931 7.1335 87.7117 8.65471L89.6047 8.00936C89.01 6.26494 88.1551 4.75281 87.0293 3.49137L85.5371 4.82308ZM87.7124 8.65691C88.2267 10.1538 88.4932 11.8841 88.4932 13.8613H90.4932C90.4932 11.7071 90.203 9.75112 89.604 8.00715L87.7124 8.65691ZM84.8711 15.1416V13.8242H82.8711V15.1416H84.8711ZM84.8711 13.8242C84.8711 12.329 84.7296 10.9828 84.433 9.79653L82.4927 10.2816C82.7404 11.2724 82.8711 12.4496 82.8711 13.8242H84.8711ZM84.4356 9.80694C84.1542 8.62768 83.7287 7.59307 83.1381 6.72878L81.4869 7.85716C81.9106 8.47724 82.2521 9.27336 82.4902 10.2712L84.4356 9.80694ZM83.1445 6.73827C82.5633 5.86633 81.8252 5.18745 80.9288 4.73166L80.0223 6.51443C80.5856 6.80083 81.0722 7.23524 81.4805 7.84767L83.1445 6.73827ZM80.9407 4.7378C80.0484 4.26897 79.0499 4.04785 77.9707 4.04785V6.04785C78.7717 6.04785 79.4431 6.21019 80.0105 6.50829L80.9407 4.7378ZM77.9707 4.04785C76.8915 4.04785 75.893 4.26897 75.0007 4.7378L75.9309 6.50829C76.4983 6.21019 77.1697 6.04785 77.9707 6.04785V4.04785ZM75.0126 4.73166C74.1162 5.18745 73.3782 5.86633 72.7969 6.73827L74.461 7.84767C74.8692 7.23524 75.3558 6.80083 75.9191 6.51443L75.0126 4.73166ZM72.7969 6.73827C72.2222 7.60028 71.8049 8.6315 71.5244 9.80694L73.4698 10.2712C73.7088 9.26955 74.0461 8.47003 74.461 7.84767L72.7969 6.73827ZM71.5244 9.80694C71.2422 10.9893 71.1074 12.3319 71.1074 13.8242H73.1074C73.1074 12.4468 73.2324 11.2659 73.4698 10.2712L71.5244 9.80694ZM71.1074 13.8242V15.1416H73.1074V13.8242H71.1074ZM71.1074 15.1416C71.1074 16.6226 71.2424 17.9639 71.5238 19.1564L73.4703 18.6971C73.2322 17.6878 73.1074 16.5056 73.1074 15.1416H71.1074ZM71.5244 19.1589C71.8048 20.3339 72.2213 21.3684 72.7927 22.2398L74.4651 21.143C74.047 20.5053 73.7089 19.6967 73.4698 18.6946L71.5244 19.1589ZM72.8033 22.2556C73.3941 23.1202 74.132 23.799 75.0192 24.2651L75.9495 22.4946C75.3771 22.1939 74.8781 21.747 74.4546 21.1272L72.8033 22.2556ZM75.0254 24.2683C75.9264 24.7338 76.9282 24.9551 78.0078 24.9551V22.9551C77.2072 22.9551 76.5267 22.7928 75.9434 22.4915L75.0254 24.2683ZM78.0078 24.9551C79.0866 24.9551 80.0819 24.7341 80.9655 24.2618L80.0228 22.498C79.4715 22.7926 78.8092 22.9551 78.0078 22.9551V24.9551ZM80.9593 24.2651C81.8491 23.7976 82.5834 23.1157 83.1631 22.2461L81.499 21.1367C81.0892 21.7515 80.5988 22.1952 80.029 22.4946L80.9593 24.2651ZM83.161 22.2492C83.7482 21.3756 84.1728 20.3377 84.4541 19.1589L82.5088 18.6946C82.2705 19.6929 81.9282 20.4981 81.5011 21.1336L83.161 22.2492ZM84.4547 19.1564C84.7361 17.9639 84.8711 16.6226 84.8711 15.1416H82.8711C82.8711 16.5056 82.7463 17.6878 82.5082 18.6971L84.4547 19.1564ZM108.438 0.984375V-0.015625H107.438V0.984375H108.438ZM113.985 0.984375H114.985V-0.015625H113.985V0.984375ZM112.649 24.085L111.802 23.5543L111.799 23.5596L112.649 24.085ZM108.994 27.2949L108.576 26.3865L108.573 26.3878L108.994 27.2949ZM98.2695 27.2949L97.8514 28.2033L97.8541 28.2046L98.2695 27.2949ZM94.5957 24.085L93.7448 24.6103L93.7481 24.6156L94.5957 24.085ZM93.2783 0.984375V-0.015625H92.2783V0.984375H93.2783ZM98.8447 0.984375H99.8447V-0.015625H98.8447V0.984375ZM99.4199 21.8027L98.5255 22.2499L99.4199 21.8027ZM101.071 23.4912L100.624 24.3857L100.63 24.3887L101.071 23.4912ZM106.229 23.4912L105.782 22.5968L105.776 22.5999L106.229 23.4912ZM107.862 21.8027L106.968 21.3555L106.962 21.3672L107.862 21.8027ZM108.438 1.98438H113.985V-0.015625H108.438V1.98438ZM112.985 0.984375V18.834H114.985V0.984375H112.985ZM112.985 18.834C112.985 20.7691 112.572 22.3249 111.802 23.5543L113.497 24.6156C114.509 23 114.985 21.0552 114.985 18.834H112.985ZM111.799 23.5596C111.027 24.81 109.961 25.7491 108.576 26.3865L109.412 28.2033C111.145 27.4058 112.516 26.2049 113.5 24.6103L111.799 23.5596ZM108.573 26.3878C107.181 27.0339 105.548 27.3711 103.65 27.3711V29.3711C105.786 29.3711 107.715 28.9908 109.415 28.202L108.573 26.3878ZM103.65 27.3711C101.754 27.3711 100.105 27.034 98.685 26.3853L97.8541 28.2046C99.5755 28.9907 101.515 29.3711 103.65 29.3711V27.3711ZM98.6877 26.3865C97.3018 25.7486 96.2282 24.8079 95.4433 23.5543L93.7481 24.6156C94.7445 26.207 96.1201 27.4064 97.8514 28.2033L98.6877 26.3865ZM95.4466 23.5596C94.687 22.3293 94.2783 20.7715 94.2783 18.834H92.2783C92.2783 21.0527 92.7479 22.9956 93.7448 24.6103L95.4466 23.5596ZM94.2783 18.834V0.984375H92.2783V18.834H94.2783ZM93.2783 1.98438H98.8447V-0.015625H93.2783V1.98438ZM97.8447 0.984375V18.834H99.8447V0.984375H97.8447ZM97.8447 18.834C97.8447 20.1413 98.0499 21.2989 98.5255 22.2499L100.314 21.3555C100.023 20.7728 99.8447 19.9511 99.8447 18.834H97.8447ZM98.5255 22.2499C98.9986 23.1962 99.6994 23.9233 100.624 24.3856L101.519 22.5968C101.008 22.3417 100.608 21.9431 100.314 21.3555L98.5255 22.2499ZM100.63 24.3887C101.524 24.8279 102.541 25.0293 103.65 25.0293V23.0293C102.781 23.0293 102.078 22.872 101.512 22.5938L100.63 24.3887ZM103.65 25.0293C104.779 25.0293 105.803 24.83 106.683 24.3825L105.776 22.5999C105.245 22.8699 104.55 23.0293 103.65 23.0293V25.0293ZM106.677 24.3856C107.604 23.9218 108.302 23.1908 108.762 22.2383L106.962 21.3672C106.681 21.9485 106.289 22.3432 105.782 22.5968L106.677 24.3856ZM108.757 22.2499C109.232 21.2989 109.438 20.1413 109.438 18.834H107.438C107.438 19.9511 107.259 20.7728 106.968 21.3555L108.757 22.2499ZM109.438 18.834V0.984375H107.438V18.834H109.438ZM124.487 0.984375H125.487V-0.015625H124.487V0.984375ZM124.487 28V29H125.487V28H124.487ZM118.939 28H117.939V29H118.939V28ZM118.939 0.984375V-0.015625H117.939V0.984375H118.939ZM123.487 0.984375V28H125.487V0.984375H123.487ZM124.487 27H118.939V29H124.487V27ZM119.939 28V0.984375H117.939V28H119.939ZM118.939 1.98438H124.487V-0.015625H118.939V1.98438ZM154.824 19.0381V18.0381H153.89L153.827 18.9701L154.824 19.0381ZM160.372 19.0381L161.37 19.0992L161.435 18.0381H160.372V19.0381ZM158.869 23.8809L158.024 23.3469L158.02 23.3522L158.869 23.8809ZM155.177 27.1836L154.73 26.2892L154.727 26.2906L155.177 27.1836ZM144.842 27.4805L144.438 28.3953L144.445 28.3983L144.842 27.4805ZM141.316 24.8828L140.557 25.5336L140.561 25.5384L141.316 24.8828ZM139.108 20.8008L138.155 21.1037L139.108 20.8008ZM139.127 8.20215L138.178 7.88811L138.176 7.89256L139.127 8.20215ZM141.391 4.10156L140.64 3.44129L140.635 3.446L141.391 4.10156ZM155.232 1.81934L154.766 2.70364L154.768 2.70517L155.232 1.81934ZM158.851 5.19629L157.991 5.70752L157.994 5.71295L158.851 5.19629ZM160.409 10.0947V11.0947H161.508L161.405 10.0006L160.409 10.0947ZM154.843 10.0947L153.844 10.1515L153.898 11.0947H154.843V10.0947ZM154.193 7.33008L153.293 7.76565L153.296 7.7714L154.193 7.33008ZM152.505 5.60449L152.034 6.48685L152.043 6.4915L152.052 6.49598L152.505 5.60449ZM144.304 9.7793L143.327 9.56593L143.325 9.57443L144.304 9.7793ZM144.285 19.1309L143.304 19.3248L143.305 19.327L144.285 19.1309ZM145.25 21.8027L144.39 22.3129L144.395 22.3216L144.4 22.3301L145.25 21.8027ZM146.957 23.4355L146.485 24.317L146.494 24.322L146.504 24.3268L146.957 23.4355ZM152.375 23.417L152.816 24.3143L152.375 23.417ZM154.101 21.7656L153.228 21.2774L153.222 21.2889L154.101 21.7656ZM154.824 20.0381H160.372V18.0381H154.824V20.0381ZM159.374 18.977C159.272 20.6433 158.816 22.0919 158.024 23.3469L159.715 24.4149C160.703 22.8495 161.25 21.0696 161.37 19.0992L159.374 18.977ZM158.02 23.3522C157.246 24.5953 156.159 25.5744 154.73 26.2892L155.624 28.078C157.361 27.2095 158.736 25.9867 159.718 24.4095L158.02 23.3522ZM154.727 26.2906C153.327 26.9961 151.596 27.3711 149.499 27.3711V29.3711C151.83 29.3711 153.885 28.9544 155.627 28.0766L154.727 26.2906ZM149.499 27.3711C147.882 27.3711 146.468 27.0943 145.239 26.5626L144.445 28.3983C145.961 29.0541 147.652 29.3711 149.499 29.3711V27.3711ZM145.246 26.5656C144.006 26.0186 142.952 25.2409 142.072 24.2273L140.561 25.5384C141.636 26.7761 142.931 27.7301 144.438 28.3953L145.246 26.5656ZM142.076 24.232C141.209 23.2205 140.533 21.9823 140.061 20.4979L138.155 21.1037C138.698 22.8107 139.494 24.2938 140.557 25.5336L142.076 24.232ZM140.061 20.4979C139.59 19.0161 139.348 17.333 139.348 15.4385H137.348C137.348 17.5022 137.612 19.3941 138.155 21.1037L140.061 20.4979ZM139.348 15.4385V13.5645H137.348V15.4385H139.348ZM139.348 13.5645C139.348 11.6721 139.596 9.99139 140.078 8.51173L138.176 7.89256C137.619 9.60431 137.348 11.4985 137.348 13.5645H139.348ZM140.076 8.51618C140.572 7.01666 141.266 5.7702 142.146 4.75712L140.635 3.446C139.561 4.68423 138.745 6.17149 138.178 7.88811L140.076 8.51618ZM142.142 4.76182C143.035 3.74538 144.098 2.9663 145.338 2.41873L144.531 0.589078C143.025 1.25376 141.725 2.20644 140.64 3.44131L142.142 4.76182ZM145.338 2.41873C146.569 1.8756 147.963 1.59473 149.536 1.59473V-0.405273C147.72 -0.405273 146.046 -0.0800295 144.531 0.589078L145.338 2.41873ZM149.536 1.59473C151.67 1.59473 153.399 1.98193 154.766 2.70364L155.699 0.935032C153.974 0.023931 151.905 -0.405273 149.536 -0.405273V1.59473ZM154.768 2.70517C156.172 3.44054 157.237 4.4404 157.991 5.70751L159.71 4.68507C158.757 3.08239 157.41 1.83095 155.696 0.933505L154.768 2.70517ZM157.994 5.71295C158.775 7.00717 159.253 8.49294 159.414 10.1889L161.405 10.0006C161.219 8.03505 160.658 6.2552 159.707 4.67962L157.994 5.71295ZM160.409 9.09473H154.843V11.0947H160.409V9.09473ZM155.841 10.038C155.774 8.85367 155.536 7.79337 155.091 6.88876L153.296 7.7714C153.593 8.3759 153.788 9.1587 153.844 10.1515L155.841 10.038ZM155.094 6.89452C154.628 5.93224 153.909 5.1962 152.958 4.71301L152.052 6.49598C152.61 6.77971 153.017 7.19406 153.293 7.76564L155.094 6.89452ZM152.975 4.72214C152.036 4.22123 150.866 4.01074 149.536 4.01074V6.01074C150.681 6.01074 151.489 6.19609 152.034 6.48685L152.975 4.72214ZM149.536 4.01074C148.484 4.01074 147.515 4.20763 146.658 4.63585L147.553 6.4247C148.082 6.16021 148.733 6.01074 149.536 6.01074V4.01074ZM146.658 4.63585C145.795 5.06723 145.087 5.71686 144.529 6.55272L146.193 7.66212C146.576 7.08783 147.03 6.68603 147.553 6.4247L146.658 4.63585ZM144.529 6.55272C143.973 7.38751 143.581 8.40268 143.327 9.56594L145.281 9.99266C145.497 9.00357 145.81 8.23749 146.193 7.66212L144.529 6.55272ZM143.325 9.57443C143.085 10.7231 142.97 12.0441 142.97 13.5273H144.97C144.97 12.1408 145.078 10.9631 145.283 9.98416L143.325 9.57443ZM142.97 13.5273V15.4385H144.97V13.5273H142.97ZM142.97 15.4385C142.97 16.8838 143.078 18.1819 143.304 19.3248L145.266 18.9369C145.072 17.9522 144.97 16.7888 144.97 15.4385H142.97ZM143.305 19.327C143.531 20.4613 143.886 21.4642 144.39 22.3129L146.11 21.2925C145.748 20.6816 145.459 19.9033 145.266 18.9347L143.305 19.327ZM144.4 22.3301C144.931 23.1852 145.626 23.8569 146.485 24.317L147.429 22.5541C146.903 22.272 146.46 21.8552 146.1 21.2754L144.4 22.3301ZM146.504 24.3268C147.38 24.7727 148.391 24.9736 149.499 24.9736V22.9736C148.628 22.9736 147.944 22.8158 147.41 22.5443L146.504 24.3268ZM149.499 24.9736C150.76 24.9736 151.882 24.7737 152.816 24.3143L151.934 22.5196C151.359 22.8025 150.564 22.9736 149.499 22.9736V24.9736ZM152.816 24.3143C153.754 23.853 154.484 23.1569 154.98 22.2424L153.222 21.2889C152.926 21.834 152.505 22.2387 151.934 22.5196L152.816 24.3143ZM154.973 22.2538C155.472 21.3618 155.741 20.2991 155.822 19.1061L153.827 18.9701C153.759 19.9542 153.545 20.7098 153.228 21.2775L154.973 22.2538ZM182.044 11.9873H183.044V10.9873H182.044V11.9873ZM182.044 16.3291V17.3291H183.044V16.3291H182.044ZM167.942 16.3291H166.942V17.3291H167.942V16.3291ZM167.942 11.9873V10.9873H166.942V11.9873H167.942ZM169.594 0.984375H170.594V-0.015625H169.594V0.984375ZM169.594 28V29H170.594V28H169.594ZM164.027 28H163.027V29H164.027V28ZM164.027 0.984375V-0.015625H163.027V0.984375H164.027ZM186.015 0.984375H187.015V-0.015625H186.015V0.984375ZM186.015 28V29H187.015V28H186.015ZM180.467 28H179.467V29H180.467V28ZM180.467 0.984375V-0.015625H179.467V0.984375H180.467ZM181.044 11.9873V16.3291H183.044V11.9873H181.044ZM182.044 15.3291H167.942V17.3291H182.044V15.3291ZM168.942 16.3291V11.9873H166.942V16.3291H168.942ZM167.942 12.9873H182.044V10.9873H167.942V12.9873ZM168.594 0.984375V28H170.594V0.984375H168.594ZM169.594 27H164.027V29H169.594V27ZM165.027 28V0.984375H163.027V28H165.027ZM164.027 1.98438H169.594V-0.015625H164.027V1.98438ZM185.015 0.984375V28H187.015V0.984375H185.015ZM186.015 27H180.467V29H186.015V27ZM181.467 28V0.984375H179.467V28H181.467ZM180.467 1.98438H186.015V-0.015625H180.467V1.98438ZM202.176 5.60449L203.126 5.91623L203.157 5.82038L203.169 5.72018L202.176 5.60449ZM194.828 28V29H195.552L195.778 28.3117L194.828 28ZM188.909 28L187.972 27.6517L187.471 29H188.909V28ZM198.947 0.984375V-0.015625H198.252L198.01 0.636075L198.947 0.984375ZM202.714 0.984375L203.707 1.10006L203.837 -0.015625H202.714V0.984375ZM208.28 28L207.33 28.3124L207.556 29H208.28V28ZM200.914 5.60449L199.922 5.73196L199.934 5.82644L199.964 5.91694L200.914 5.60449ZM200.32 0.984375V-0.015625H199.184L199.328 1.11184L200.32 0.984375ZM204.124 0.984375L205.061 0.63438L204.818 -0.015625H204.124V0.984375ZM214.218 28V29H215.659L215.155 27.65L214.218 28ZM207.946 17.9434H208.946V16.9434H207.946V17.9434ZM207.946 22.3037V23.3037H208.946V22.3037H207.946ZM193.678 22.3037H192.678V23.3037H193.678V22.3037ZM193.678 17.9434V16.9434H192.678V17.9434H193.678ZM201.226 5.29276L193.878 27.6883L195.778 28.3117L203.126 5.91623L201.226 5.29276ZM194.828 27H188.909V29H194.828V27ZM189.847 28.3483L199.885 1.33267L198.01 0.636075L187.972 27.6517L189.847 28.3483ZM198.947 1.98438H202.714V-0.015625H198.947V1.98438ZM201.721 0.868691L201.182 5.48881L203.169 5.72018L203.707 1.10006L201.721 0.868691ZM209.23 27.6876L201.864 5.29204L199.964 5.91694L207.33 28.3124L209.23 27.6876ZM201.906 5.47703L201.312 0.856909L199.328 1.11184L199.922 5.73196L201.906 5.47703ZM200.32 1.98438H204.124V-0.015625H200.32V1.98438ZM203.187 1.33437L213.281 28.35L215.155 27.65L205.061 0.63438L203.187 1.33437ZM214.218 27H208.28V29H214.218V27ZM206.946 17.9434V22.3037H208.946V17.9434H206.946ZM207.946 21.3037H193.678V23.3037H207.946V21.3037ZM194.678 22.3037V17.9434H192.678V22.3037H194.678ZM193.678 18.9434H207.946V16.9434H193.678V18.9434ZM226.501 0.984375H227.501V-0.015625H226.501V0.984375ZM226.501 28V29H227.501V28H226.501ZM220.953 28H219.953V29H220.953V28ZM220.953 0.984375V-0.015625H219.953V0.984375H220.953ZM234.813 0.984375H235.813V-0.015625H234.813V0.984375ZM234.813 5.34473V6.34473H235.813V5.34473H234.813ZM212.771 5.34473H211.771V6.34473H212.771V5.34473ZM212.771 0.984375V-0.015625H211.771V0.984375H212.771ZM225.501 0.984375V28H227.501V0.984375H225.501ZM226.501 27H220.953V29H226.501V27ZM221.953 28V0.984375H219.953V28H221.953ZM220.953 1.98438H226.501V-0.015625H220.953V1.98438ZM233.813 0.984375V5.34473H235.813V0.984375H233.813ZM234.813 4.34473H212.771V6.34473H234.813V4.34473ZM213.771 5.34473V0.984375H211.771V5.34473H213.771ZM212.771 1.98438H234.813V-0.015625H212.771V1.98438Z" fill="black"/>
</svg>
